# xmcd CD database file
#
# Track frame offsets:
#	150
#	23687
#	39871
#	59297
#	85478
#	100441
#	116621
#	135110
#	154982
#	173275
#	198367
#	218358
#
# Disc length: 3294 seconds
#
# Revision: 0
# Processed by: cddbd v1.5.2PL0 Copyright (c) Steve Scherf et al.
# Submitted via: CDex 1.51
#
DISCID=8c0cdc0c
DTITLE=Rachel and Dan - Save your Love for Me
DYEAR=1900
DGENRE=Jazz
TTITLE0=Save your love for me
TTITLE1=Deed I do
TTITLE2=Angel eyes
TTITLE3=Georgia
TTITLE4=You'dbe so nice come home to
TTITLE5=Baby, baby all the time
TTITLE6=The more I see you
TTITLE7=It's allright with me
TTITLE8=But not for me
TTITLE9=It Never entered my mind
TTITLE10=Ain't misbehavin'
TTITLE11=Over the rainbow
EXTD=
EXTT0=
EXTT1=
EXTT2=
EXTT3=
EXTT4=
EXTT5=
EXTT6=
EXTT7=
EXTT8=
EXTT9=
EXTT10=
EXTT11=
PLAYORDER=
